<?xml version="1.0" standalone="no"?>
<!DOCTYPE svg PUBLIC "-//W3C//DTD SVG 20010904//EN"
 "http://www.w3.org/TR/2001/REC-SVG-20010904/DTD/svg10.dtd">
<svg version="1.0" xmlns="http://www.w3.org/2000/svg"
 width="128.000000pt" height="128.000000pt" viewBox="0 0 128.000000 128.000000"
 preserveAspectRatio="xMidYMid meet">
<metadata>
Created by potrace 1.11, written by Peter Selinger 2001-2013
</metadata>
<g transform="translate(0.000000,128.000000) scale(0.100000,-0.100000)"
fill="#000000" stroke="none">
<path d="M703 1246 c-135 -64 -227 -141 -288 -242 -46 -76 -66 -144 -66 -230
l-1 -69 -24 40 c-13 22 -27 61 -30 87 -6 47 -7 47 -23 25 -133 -174 -145 -426
-28 -603 68 -104 133 -166 212 -203 88 -42 152 -54 256 -48 113 7 195 43 274
122 95 96 134 219 130 415 -2 130 -14 183 -58 257 l-21 37 -11 -74 c-9 -62
-63 -210 -77 -210 -2 0 -5 14 -6 30 -4 50 -37 125 -111 254 -84 146 -104 200
-104 288 0 52 6 76 26 112 14 25 25 46 24 46 -1 -1 -34 -16 -74 -34z"/>
</g>
</svg>
